<svg xmlns="http://www.w3.org/2000/svg" xmlns:xlink="http://www.w3.org/1999/xlink" width="512" height="512" viewBox="0 0 512 512" role="img" aria-labelledby="title desc">
  <title id="title">Inflated Instagram</title>
  <desc id="desc">Original logo and brand colors on a smooth inflated cushion. Background outline matches the Mail icon exactly.</desc>
  <defs>
    <linearGradient id="rim" x1="0" y1="0" x2=".3" y2="1">
      <stop stop-color="#f9d6ff" />
      <stop offset=".22" stop-color="#db67ef" />
      <stop offset=".72" stop-color="#8a1455" />
      <stop offset="1" stop-color="#ffc686" />
    </linearGradient>
    <linearGradient id="shine" x1="0" y1="0" x2="0" y2="1">
      <stop stop-color="#fff" stop-opacity=".96" />
      <stop offset="1" stop-color="#fff" stop-opacity="0" />
    </linearGradient>
    <radialGradient id="spot">
      <stop stop-color="#fff" stop-opacity=".96" />
      <stop offset=".4" stop-color="#fff" stop-opacity=".43" />
      <stop offset="1" stop-color="#fff" stop-opacity="0" />
    </radialGradient>
    <filter id="soft" x="-50%" y="-50%" width="200%" height="200%">
      <feGaussianBlur stdDeviation="8" />
    </filter>
    <filter id="ground" x="-15%" y="-15%" width="130%" height="135%" color-interpolation-filters="sRGB">
      <feDropShadow dx="0" dy="5" stdDeviation="4" flood-color="#411447" flood-opacity=".32" />
    </filter>
    <path id="cushion" d="M145 28C201 18 311 18 367 28C441 39 474 72 485 145C495 202 495 310 485 367C474 441 441 474 367 485C311 495 201 495 145 485C71 474 38 441 27 367C17 310 17 202 27 145C38 72 71 39 145 28Z" />
    <clipPath id="blueClip">
      <use href="#cushion" />
    </clipPath>
    <radialGradient id="f" cx="158.429" cy="578.088" r="52.3515" xlink:href="#a" gradientUnits="userSpaceOnUse" gradientTransform="matrix(0 -4.03418 4.28018 0 -2332.2273 942.2356)" fx="158.429" fy="578.088" />
    <radialGradient xlink:href="#b" id="g" gradientUnits="userSpaceOnUse" gradientTransform="matrix(.67441 -1.16203 1.51283 .87801 -814.3657 -47.8354)" cx="172.6149" cy="600.6924" fx="172.6149" fy="600.6924" r="65" />
    <radialGradient xlink:href="#c" id="h" cx="144.012" cy="51.3367" fx="144.012" fy="51.3367" r="67.081" gradientTransform="matrix(-2.3989 .67549 -.23008 -.81732 464.9957 -26.4035)" gradientUnits="userSpaceOnUse" />
    <radialGradient xlink:href="#d" id="e" gradientUnits="userSpaceOnUse" gradientTransform="matrix(-3.10797 .87652 -.6315 -2.23914 1345.6503 1374.1983)" cx="199.7884" cy="628.4379" fx="199.7884" fy="628.4379" r="52.3515" />
    <linearGradient id="d">
      <stop offset="0" stop-color="#ff005f" />
      <stop offset="1" stop-color="#fc01d8" />
    </linearGradient>
    <linearGradient id="c">
      <stop offset="0" stop-color="#780cff" />
      <stop stop-color="#820bff" offset="1" stop-opacity="0" />
    </linearGradient>
    <linearGradient id="b">
      <stop offset="0" stop-color="#fc0" />
      <stop offset="1" stop-color="#fc0" stop-opacity="0" />
    </linearGradient>
    <linearGradient id="a">
      <stop offset="0" stop-color="#fc0" />
      <stop offset=".1242" stop-color="#fc0" />
      <stop offset=".5672" stop-color="#fe4a05" />
      <stop offset=".6942" stop-color="#ff0f3f" />
      <stop offset="1" stop-color="#fe0657" stop-opacity="0" />
    </linearGradient>
    <pattern id="brand" patternUnits="userSpaceOnUse" width="512" height="512">
      <g transform="scale(1.93511835403)">
        <rect x="71.8155" y="18.1429" width="264.5833" height="264.5833" transform="translate(-71.8155 -18.1429)" fill="url(#e)" />
        <rect x="71.8155" y="18.1429" width="264.5833" height="264.5833" transform="translate(-71.8155 -18.1429)" fill="url(#f)" />
        <rect x="71.8155" y="18.1429" width="264.5833" height="264.5833" transform="translate(-71.8155 -18.1429)" fill="url(#g)" />
        <rect x="71.8155" y="18.1429" width="264.5833" height="264.5833" transform="translate(-71.8155 -18.1429)" fill="url(#h)" />
      </g>
    </pattern>
    <radialGradient id="inflation" cx="37%" cy="28%" r="78%">
      <stop stop-color="#ffffff" stop-opacity=".16" />
      <stop offset=".38" stop-color="#ffffff" stop-opacity=".035" />
      <stop offset=".58" stop-color="#000000" stop-opacity="0" />
      <stop offset=".79" stop-color="#000000" stop-opacity=".1" />
      <stop offset="1" stop-color="#000000" stop-opacity=".38" />
    </radialGradient>
  </defs>
  <g filter="url(#ground)">
    <use href="#cushion" fill="url(#brand)" stroke="url(#rim)" stroke-width="3" />
    <g clip-path="url(#blueClip)">
      <use href="#cushion" fill="url(#inflation)" />
      <path d="M57 154C66 67 108 47 185 38C259 30 339 33 385 45" fill="none" stroke="#ffd3ff" stroke-width="15" opacity=".36" filter="url(#soft)" />
      <path d="M64 130C82 65 125 49 199 43C264 37 334 39 377 48" fill="none" stroke="url(#shine)" stroke-width="12" stroke-linecap="round" opacity=".32" filter="url(#soft)" />
      <path d="M42 181C30 243 37 330 49 363" fill="none" stroke="#f9b1ff" stroke-width="13" opacity=".28" filter="url(#soft)" />
      <path d="M68 399C91 447 131 456 180 460C259 468 334 462 379 451" fill="none" stroke="#742940" stroke-width="23" opacity=".13" filter="url(#soft)" />
      <path d="M101 458C173 484 345 485 408 451" fill="none" stroke="#ffcd99" stroke-width="8" opacity=".24" filter="url(#soft)" />
      <ellipse cx="115" cy="76" rx="57" ry="15" fill="url(#spot)" transform="rotate(-25 115 76)" />
      <ellipse cx="433" cy="147" rx="14" ry="53" fill="url(#spot)" opacity=".6" transform="rotate(-12 433 147)" />
      <use href="#cushion" fill="none" stroke="#812052" stroke-width="12" opacity=".13" />
    </g>
  </g>
  <g id="logo" transform="translate(36.683776 36.683776) scale(1.65782363437)">
    <path d="M132.3452 33.973c-26.7167 0-30.0696.1167-40.5629.5939-10.4727.4792-17.6212 2.136-23.8762 4.567-6.4701 2.5107-11.9586 5.8693-17.4265 11.3352-5.472 5.464-8.8332 10.9483-11.354 17.4116-2.4389 6.2524-4.099 13.3976-4.5703 23.8585-.4693 10.4854-.5923 13.8379-.5923 40.5348 0 26.697.1189 30.0371.5943 40.5225.4817 10.465 2.1397 17.6082 4.5703 23.8585 2.5147 6.4654 5.8758 11.9497 11.3458 17.4136 5.466 5.468 10.9544 8.8349 17.4204 11.3456 6.259 2.4309 13.4097 4.0877 23.8803 4.567 10.4933.477 13.8441.5938 40.5588.5938 26.7188 0 30.0615-.1167 40.5547-.5939 10.4728-.4792 17.6295-2.136 23.8885-4.567 6.4681-2.5106 11.9484-5.8775 17.4143-11.3455 5.472-5.4639 8.8332-10.9482 11.354-17.4115 2.4183-6.2524 4.0784-13.3976 4.5703-23.8585.4713-10.4854.5943-13.8277.5943-40.5246 0-26.697-.123-30.0473-.5943-40.5328-.4919-10.465-2.152-17.6081-4.5703-23.8584-2.5208-6.4654-5.882-11.9498-11.354-17.4137-5.4721-5.468-10.9442-8.8266-17.4204-11.3353-6.2714-2.4309-13.424-4.0877-23.8967-4.5669-10.4933-.4772-13.8339-.5939-40.5588-.5939zm-8.825 17.7147c2.6193-.0041 5.5418 0 8.825 0 26.2659 0 29.379.0942 39.7513.5652 9.5915.4383 14.7971 2.0397 18.2648 3.3852 4.5908 1.7817 7.8638 3.9116 11.3048 7.3521 3.4431 3.4406 5.5745 6.7173 7.3617 11.3046 1.3465 3.461 2.9512 8.6628 3.3877 18.2472.4714 10.3625.5739 13.4754.5739 39.7095 0 26.234-.1025 29.347-.5739 39.7095-.4386 9.5843-2.0412 14.7861-3.3877 18.2471-1.783 4.5874-3.9186 7.8539-7.3617 11.2923-3.443 3.4406-6.712 5.5704-11.3048 7.3521-3.4636 1.3517-8.6733 2.949-18.2648 3.3873-10.3702.471-13.4854.5734-39.7513.5734-26.2679 0-29.381-.1024-39.7513-.5734-9.5914-.4423-14.797-2.0438-18.2668-3.3893-4.5908-1.7817-7.87-3.9116-11.313-7.3521-3.4431-3.4405-5.5745-6.709-7.3617-11.2985-1.3465-3.461-2.9512-8.6628-3.3877-18.2471-.4714-10.3626-.5657-13.4754-.5657-39.7259 0-26.2504.0943-29.347.5657-39.7095.4386-9.5844 2.0412-14.7861 3.3877-18.2512 1.783-4.5874 3.9186-7.8641 7.3617-11.3046 3.443-3.4406 6.7222-5.5704 11.313-7.3562 3.4677-1.3517 8.6754-2.949 18.2668-3.3894 9.075-.4096 12.5919-.5324 30.9264-.553zm61.3363 16.322c-6.5173 0-11.805 5.2776-11.805 11.792 0 6.5125 5.2877 11.7962 11.805 11.7962 6.5172 0 11.8049-5.2837 11.8049-11.7962 0-6.5124-5.2877-11.796-11.805-11.796zm-52.5113 13.7826c-27.8993 0-50.5191 22.6031-50.5191 50.4817 0 27.8786 22.6198 50.4714 50.5191 50.4714s50.511-22.5928 50.511-50.4714c0-27.8786-22.6137-50.4817-50.513-50.4817zm0 17.7147c18.109 0 32.7914 14.6694 32.7914 32.767 0 18.0956-14.6824 32.767-32.7914 32.767-18.111 0-32.7913-14.6714-32.7913-32.767 0-18.0976 14.6803-32.767 32.7913-32.767z" fill="#fff" />
  </g>
</svg>
