<svg xmlns="http://www.w3.org/2000/svg" width="512" height="512" viewBox="0 0 512 512" role="img" aria-label="instagram icon">
  <style>
    svg { color: #000; }
    @media (prefers-color-scheme: dark) {
      svg { color: #fff; }
    }
  </style>
  <path fill="currentColor" fill-rule="evenodd" d="
    M 397 3.938 L 371 5.369 L 315 7.246 L 151 10.682 L 87 12.768 L 76 14.641 L 68 16.802 L 60 19.682 L 48 25.644 L 40 30.879 L 34 35.65 L 25.632 44 L 20.833 50 L 13.58 62 L 8.768 74 L 5.697 88 L 3.704 110 L 3.577 143 L 4.693 237 L 6.58 368 L 7.311 386 L 6.538 420 L 7.746 429 L 9.72 437 L 12.58 445 L 16.817 454 L 21.688 462 L 27.823 470 L 35 477.444 L 43 484.177 L 56 492.311 L 70 498.15 L 82 501.356 L 98 503.332 L 160 501.833 L 249 502.577 L 348 504.833 L 358 505.58 L 368 507.531 L 391 507.484 L 421 503.318 L 432 501.296 L 440 499.15 L 450 495.246 L 461 489.288 L 472 481.203 L 481 472.64 L 489.322 463 L 498.322 449 L 503.42 438 L 507.267 426 L 509.488 411 L 509.823 289 L 509.336 222 L 508.393 184 L 505.276 132 L 502.315 101 L 499.223 78 L 497.303 70 L 494.232 61 L 489.459 51 L 485.227 44 L 476 32.729 L 463 21.741 L 449 13.823 L 439 9.812 L 432 7.701 L 416 4.644 L 404 3.833 Z
    M 282 38.981 L 192 40.577 L 165 41.657 L 133 43.733 L 92 47.644 L 79 50.828 L 72 53.602 L 65 57.516 L 56 65.049 L 51.817 70 L 47.555 77 L 42.704 88 L 39.708 97 L 36.812 110 L 35.514 123 L 35.759 400 L 36.708 411 L 38.671 421 L 41.586 430 L 44.746 437 L 49.759 445 L 56 452.189 L 62 457.305 L 72 463.339 L 79 466.25 L 86 468.346 L 97 470.339 L 105 470.802 L 245 470.833 L 361 476.311 L 379 476.318 L 396 475.332 L 412 473.322 L 421 471.284 L 432 467.339 L 440 463.218 L 449 457.232 L 458.109 449 L 466.246 439 L 470.38 432 L 475.183 420 L 476.393 415 L 477.396 407 L 477.108 184 L 475.369 148 L 471.378 113 L 467.353 92 L 465.276 85 L 460.127 73 L 457.223 68 L 451.204 60 L 442 51.661 L 436 47.861 L 429 44.531 L 416 40.58 L 403 38.768 L 395 38.5 Z
    M 259 136.938 L 247 137.697 L 229 140.708 L 218 143.812 L 208 147.616 L 194 154.741 L 178 164.737 L 169 171.646 L 159 181.286 L 152.623 189 L 148.682 195 L 143.724 205 L 140.763 214 L 137.773 228 L 135.729 244 L 135.322 255 L 135.647 271 L 137.693 287 L 139.792 297 L 144.548 313 L 149.685 326 L 156.716 340 L 161.892 348 L 168 355.59 L 178 365.229 L 185 370.299 L 192 374.288 L 199 377.343 L 209 380.384 L 226 383.254 L 248 385.292 L 276 385.28 L 286 384.227 L 301 381.339 L 311 378.288 L 321 374.208 L 327 371.25 L 338 364.322 L 347 357.121 L 355.076 349 L 365.413 336 L 371.227 327 L 375.076 320 L 381.267 306 L 385.177 293 L 387.276 282 L 388.296 271 L 388.161 258 L 386.353 243 L 383.177 229 L 379.39 217 L 374.161 204 L 369.139 194 L 362.352 183 L 356.301 175 L 346.745 165 L 338 157.618 L 329 151.664 L 319 146.566 L 309 142.704 L 298 139.72 L 286 137.724 L 272 136.833 Z
    M 244 166.917 L 234 168.828 L 225 171.588 L 215 175.729 L 207 179.768 L 199 184.644 L 191 190.641 L 182.495 199 L 177.782 205 L 174.632 210 L 170.802 218 L 167.693 228 L 165.675 238 L 164.644 246 L 164.172 262 L 164.777 273 L 166.675 285 L 171.733 303 L 175.701 313 L 181.746 325 L 185.828 331 L 191 336.793 L 196 341.353 L 202 345.361 L 208 348.284 L 218 351.28 L 240 354.42 L 262 355.223 L 273 354.356 L 285 352.271 L 301 347.25 L 311 342.336 L 319 337.223 L 325 332.409 L 332.426 325 L 337.232 319 L 341.127 313 L 347.422 300 L 350.332 291 L 352.28 282 L 353.378 273 L 353.433 256 L 351.177 240 L 346.303 224 L 342.127 215 L 337.42 207 L 332.329 200 L 326 193.019 L 315 183.597 L 307 178.534 L 297 173.661 L 281 168.716 L 265 166.441 L 255 166.172 Z
    M 399 84.802 L 393 86.792 L 390 88.593 L 383.85 95 L 381.787 99 L 380.622 103 L 380.607 112 L 381.844 116 L 384.773 121 L 388 124.213 L 391 126.218 L 397 128.426 L 402 128.75 L 406 128.375 L 411 126.513 L 415 124.004 L 418.204 121 L 420.379 118 L 423.144 111 L 423.366 103 L 422.315 99 L 420.369 95 L 418.193 92 L 415 88.981 L 411 86.471 L 406 84.716 Z
  "/>
</svg>
