<svg xmlns="http://www.w3.org/2000/svg" width="512" height="512" viewBox="0 0 512 512" role="img" aria-label="linkedin icon">
  <style>
    svg { color: #000; }
    @media (prefers-color-scheme: dark) {
      svg { color: #fff; }
    }
  </style>
  <path fill="currentColor" fill-rule="evenodd" d="
    M 389 3.938 L 335 6.318 L 98 11.625 L 84 12.693 L 74 14.628 L 67 16.596 L 56 20.823 L 50 23.823 L 42 28.707 L 34 34.817 L 25.649 43 L 20.733 49 L 13.879 60 L 8.746 72 L 5.724 84 L 3.552 103 L 2.951 123 L 3.682 200 L 6.619 386 L 5.787 417 L 6.746 426 L 9.631 438 L 12.6 446 L 17.636 456 L 20.746 461 L 27.628 470 L 36 478.439 L 43 484.188 L 56 492.208 L 65 496.208 L 78 500.198 L 92 502.484 L 103 503.062 L 152 501.577 L 218 501.75 L 352 504.59 L 368 507.315 L 389 507.303 L 418 503.346 L 430 501.193 L 441 498.271 L 449 495.062 L 460 489.167 L 471 481.208 L 481 471.687 L 489.246 462 L 498.049 448 L 504.246 434 L 506.366 427 L 508.241 418 L 509.144 406 L 509.399 285 L 508.237 194 L 506.346 154 L 504.332 127 L 500.322 88 L 498.359 76 L 496.254 68 L 493.414 60 L 489.167 51 L 484.254 43 L 480.425 38 L 473 29.938 L 467 24.719 L 460 19.75 L 447 12.763 L 439 9.631 L 429 6.685 L 419 4.746 L 410 3.75 Z
    M 254 38.944 L 174 40.763 L 128 43.685 L 96 46.607 L 89 47.724 L 75 51.701 L 67 55.561 L 62 58.817 L 52.572 68 L 46.812 77 L 41.644 89 L 37.792 102 L 35.678 114 L 34.817 129 L 35.372 399 L 35.733 407 L 36.716 414 L 38.787 423 L 41.6 431 L 46.754 441 L 52.771 449 L 58 454.115 L 65 459.353 L 72 463.208 L 80 466.372 L 92 469.325 L 100 470.315 L 246 470.55 L 346 475.359 L 371 475.938 L 391 475.359 L 402 474.322 L 419 471.343 L 428 468.349 L 437 464.25 L 448 457.172 L 454 452.162 L 462.456 443 L 467.348 436 L 472.412 426 L 475.346 417 L 476.428 411 L 476.802 403 L 476.787 234 L 476.213 172 L 474.339 142 L 471.237 115 L 467.369 94 L 462.193 78 L 459.303 72 L 453.413 63 L 448 56.832 L 442 51.677 L 436 47.754 L 430 44.792 L 422 41.856 L 413 39.75 L 405 38.647 L 393 38.167 L 346 38.062 Z
    M 310 152.988 L 298 154.582 L 289 157.543 L 279 162.704 L 272 167.754 L 266 172.981 L 254.619 185 L 242.657 201 L 236.605 212 L 232.637 222 L 227.759 241 L 223.671 267 L 222.538 280 L 222.083 301 L 223.724 334 L 227.754 371 L 230.524 378 L 233.439 381 L 236 382.399 L 241 383.062 L 246 382.062 L 250.102 379 L 252.307 374 L 252.768 365 L 252.471 317 L 253.72 295 L 257.828 259 L 260.746 241 L 263.704 230 L 267.57 221 L 271.603 214 L 276.709 207 L 282 201.374 L 287 196.735 L 294 191.642 L 302 187.689 L 307 186.514 L 315 186.582 L 319 187.644 L 325 190.688 L 332 196.532 L 339.203 205 L 344.43 213 L 349.325 223 L 352.346 232 L 354.172 240 L 356.372 254 L 363.496 313 L 361.602 315 L 361.426 316 L 358.861 354 L 359.604 367 L 361.701 373 L 365 377.489 L 370 381.198 L 373 382.339 L 376 382.746 L 382 382.396 L 387 380.246 L 390.917 377 L 393.413 374 L 396.384 368 L 397.325 364 L 398.325 353 L 399.498 332 L 399.51 299 L 398.378 281 L 396.303 264 L 392.271 243 L 388.329 228 L 382.271 211 L 375.325 197 L 367.345 185 L 361 177.473 L 351 167.833 L 342 161.577 L 332 156.716 L 321 153.697 Z
    M 162 174.951 L 158.188 177 L 154.618 181 L 153.487 184 L 152.631 189 L 152.75 362 L 153.75 370 L 155.517 376 L 157.685 381 L 160 383.44 L 163 385.069 L 167 386.271 L 170 386.492 L 172 386.172 L 175 384.461 L 178.334 381 L 179.387 379 L 181.284 369 L 181.299 357 L 174.332 187 L 173 182.005 L 170.321 178 L 166 175.572 Z
    M 156 104.768 L 150.265 108 L 145.951 112 L 143.622 116 L 142.782 119 L 142.564 123 L 143.664 129 L 146.478 134 L 152 139.336 L 157 141.232 L 164 139.419 L 169 135.662 L 171.43 131 L 172.369 127 L 172.46 123 L 171.232 117 L 168.345 113 L 158 104.567 Z
  "/>
</svg>
