<svg xmlns="http://www.w3.org/2000/svg" width="512" height="512" viewBox="0 0 512 512" role="img" aria-label="mail icon">
  <style>
    svg { color: #000; }
    @media (prefers-color-scheme: dark) {
      svg { color: #fff; }
    }
  </style>
  <path fill="currentColor" fill-rule="evenodd" d="
    M 91 49.904 L 76 51.675 L 64 54.697 L 59 56.553 L 54 58.704 L 45 63.787 L 34 71.867 L 24.756 81 L 20.797 86 L 15.763 94 L 10.664 106 L 7.72 119 L 6.567 137 L 4.671 233 L 3.564 308 L 3.746 357 L 6.607 377 L 8.631 385 L 12.879 397 L 17.668 407 L 22.657 415 L 33 427.15 L 43 435.36 L 53 441.43 L 64 446.369 L 80 451.363 L 101 456.193 L 121 459.237 L 134 460.375 L 165 461.167 L 337 462.318 L 403 462.318 L 419 461.343 L 433 459.343 L 443 457.28 L 458 452.318 L 466 448.466 L 473 444.32 L 481 438.188 L 485 434.364 L 491.172 427 L 497.336 417 L 502.241 405 L 504.353 397 L 507.332 378 L 509.183 358 L 510.303 333 L 510.396 318 L 509.303 279 L 501.343 115 L 499.271 104 L 495.369 93 L 490.389 84 L 483 74.879 L 472 65.741 L 463 60.593 L 454 56.823 L 441 53.593 L 422 51.844 L 262 49.318 L 115 49.318 Z
    M 215 266.491 L 65 404.761 L 60.508 409 L 60.289 410 L 68 414.43 L 78 418.407 L 88 421.299 L 102 424.325 L 131 428.311 L 165 430.156 L 287 430.375 L 411 429.75 L 422 429.276 L 436 427.254 L 443 425.096 L 447.576 422 L 297 268.917 L 296 268.267 L 295 268.799 L 277 285.382 L 268 292.188 L 261 295.42 L 257 296.372 L 252 296.448 L 247 295.381 L 244 294.076 L 238 290.277 Z
    M 127 72.938 L 111 73.777 L 95 75.682 L 80 78.792 L 69.981 82 L 258 267.412 L 259.184 267 L 317 207.344 L 353.495 171 L 390 136.694 L 441 90.334 L 447.825 84 L 448.32 83 L 432 79.746 L 420 78.759 L 235 75.241 L 146 72.833 Z
    M 47 97.281 L 41 103.205 L 36.567 110 L 33.787 118 L 32.885 125 L 31.288 201 L 28.72 279 L 29.685 327 L 31.661 351 L 33.741 362 L 36.737 373 L 41.75 387 L 44 391.786 L 148 291.298 L 167.096 272 L 194.378 243 L 194.242 242 L 193 240.77 L 49 98.633 Z
    M 469 105.988 L 466 107.73 L 433 135.786 L 392 172.781 L 352.299 211 L 312.634 251 L 313 252.108 L 469 404.387 L 473.332 389 L 476.343 365 L 478.156 336 L 478.453 312 L 476.299 234 L 472.288 137 L 471.366 118 Z
  "/>
</svg>
